<svg width="26" height="27" viewBox="0 0 26 27" fill="none" xmlns="http://www.w3.org/2000/svg">
<path fill-rule="evenodd" clip-rule="evenodd" d="M12.947 5.79655C17.3413 5.79655 20.9087 9.3652 20.9087 13.7612C20.9087 18.1571 17.3413 21.7258 12.947 21.7258C8.55258 21.7258 4.98523 18.1571 4.98523 13.7612C4.98523 9.3652 8.55258 5.79655 12.947 5.79655ZM7.97088 16.0012C7.62056 16.0012 7.31105 15.7717 7.20954 15.4362C7.05876 14.9041 6.97566 14.3421 6.97566 13.7612C6.97566 10.4643 9.6513 7.78771 12.947 7.78771C13.2973 7.78771 13.6068 8.01719 13.7083 8.3527C13.8591 8.88483 13.9422 9.44684 13.9422 10.0278C13.9422 13.3246 11.2665 16.0012 7.97088 16.0012Z" fill="#999999"/>
<path fill-rule="evenodd" clip-rule="evenodd" d="M20.7339 4.56582L19.429 5.87123C19.0243 6.27609 19.0243 6.93302 19.429 7.33788C19.8337 7.74274 20.4904 7.74274 20.8951 7.33788L22.2001 6.03247C22.6048 5.62761 22.6051 4.97032 22.2004 4.56546C21.7957 4.1606 21.1386 4.16096 20.7339 4.56582Z" fill="#999999"/>
<path fill-rule="evenodd" clip-rule="evenodd" d="M5.03568 20.2698L3.8152 21.4907C3.41049 21.8956 3.41049 22.5525 3.8152 22.9574C4.21992 23.3622 4.87661 23.3622 5.28132 22.9574L6.5018 21.7365C6.90651 21.3316 6.90651 20.6747 6.5018 20.2698C6.09708 19.8649 5.44039 19.8649 5.03568 20.2698Z" fill="#999999"/>
<path fill-rule="evenodd" clip-rule="evenodd" d="M22.1389 21.4832L20.9015 20.2453C20.4972 19.8408 19.8401 19.8405 19.4354 20.2453C19.0307 20.6502 19.0311 21.3075 19.4354 21.712L20.6728 22.9498C21.0775 23.3547 21.7345 23.355 22.1393 22.9502C22.544 22.5453 22.5436 21.888 22.1389 21.4832Z" fill="#999999"/>
<path fill-rule="evenodd" clip-rule="evenodd" d="M6.48246 5.82104L5.22714 4.56527C4.82243 4.16041 4.16538 4.16006 3.76067 4.56492C3.35596 4.96978 3.35631 5.62706 3.76102 6.03192L5.01634 7.28769C5.42105 7.69255 6.07774 7.69255 6.48246 7.28769C6.88717 6.88283 6.88717 6.2259 6.48246 5.82104Z" fill="#999999"/>
<path fill-rule="evenodd" clip-rule="evenodd" d="M24.963 12.7434L23.1179 12.7434C22.5456 12.7434 22.0813 13.2078 22.0813 13.7803C22.0813 14.3527 22.5456 14.8171 23.1179 14.8171L24.963 14.8171C25.5352 14.8171 26 14.3527 26 13.7803C26 13.2078 25.5352 12.7434 24.963 12.7434Z" fill="#999999"/>
<path fill-rule="evenodd" clip-rule="evenodd" d="M2.76219 12.7434L1.03649 12.7434C0.464238 12.7434 -3.02792e-05 13.2078 -3.02792e-05 13.7803C-3.02792e-05 14.3527 0.464238 14.8171 1.03649 14.8171H2.76219C3.33444 14.8171 3.79871 14.3527 3.79871 13.7803C3.79871 13.2078 3.33444 12.7434 2.76219 12.7434Z" fill="#999999"/>
<path fill-rule="evenodd" clip-rule="evenodd" d="M13.9982 25.6997L13.9982 23.9495C13.9982 23.3776 13.5338 22.9126 12.9613 22.9126C12.3889 22.9126 11.9244 23.3776 11.9244 23.9495L11.9244 25.6997C11.9244 26.2722 12.3889 26.7371 12.9613 26.7371C13.5338 26.7371 13.9982 26.2722 13.9982 25.6997Z" fill="#999999"/>
<path fill-rule="evenodd" clip-rule="evenodd" d="M13.9982 3.55016L13.9982 1.77455C13.9982 1.20209 13.5338 0.737155 12.9613 0.737155C12.3889 0.737155 11.9244 1.20209 11.9244 1.77455L11.9244 3.55016C11.9244 4.12261 12.3889 4.58705 12.9613 4.58705C13.5338 4.58705 13.9982 4.12261 13.9982 3.55016Z" fill="#999999"/>
</svg>
