<svg width="27" height="26" viewBox="0 0 27 26" fill="none" xmlns="http://www.w3.org/2000/svg">
<path fill-rule="evenodd" clip-rule="evenodd" d="M13.5 -3.05176e-05C6.32032 -3.05176e-05 0.5 5.82029 0.5 13C0.5 20.1797 6.32032 26 13.5 26C20.6797 26 26.5 20.1797 26.5 13C26.5 5.82029 20.6797 -3.05176e-05 13.5 -3.05176e-05ZM10.891 21.0155C10.7861 23.2902 10.7861 24.4952 10.891 24.6304C11.35 24.7372 11.8292 24.8139 12.3284 24.8603C13.0773 24.9301 13.2654 24.932 13.8071 24.9147C14.3487 24.8974 14.9 24.8527 15.4078 24.7729C15.6942 24.7279 16.0949 24.6399 16.61 24.5087C16.8134 21.6385 16.7962 19.8987 16.5585 19.2896C16.3432 18.7376 16.1676 18.5114 16.0623 18.3757C15.9933 18.2868 15.9546 18.2368 15.9546 18.1596C15.9546 18.0296 16.0461 17.9354 16.2291 17.877C17.8254 17.5241 18.8958 16.5432 19.4402 14.934C20.1947 12.7045 19.1177 11.0832 18.682 10.4273C18.646 10.3732 18.6144 10.3256 18.5886 10.2849C18.2498 9.75001 18.6937 8.44828 19.2237 7.40654C17.4212 7.04519 16.7328 7.88263 16.3379 8.36293C16.1767 8.5591 16.0644 8.69569 15.9452 8.66668C15.8387 8.64076 15.7241 8.59037 15.5866 8.52992C15.1932 8.35699 14.6126 8.10177 13.5002 8.10177C12.1205 8.10177 11.2065 8.58365 11.0668 8.65732C11.0544 8.66382 11.0481 8.66715 11.0481 8.66668C10.323 7.65603 9.29314 7.23603 7.95869 7.40654C8.32627 8.87527 8.35389 9.83467 8.04157 10.2849C7.57314 10.9601 6.69504 12.5309 7.37673 14.934C8.05836 17.3372 10.5401 17.877 11.0125 17.877C11.0129 17.8771 11.0139 17.8773 11.0156 17.8777C11.0531 17.8858 11.4007 17.9607 11.2963 18.2545C11.2758 18.3326 11.2622 18.439 11.2469 18.5588C11.1977 18.9435 11.1307 19.4664 10.7618 19.6364C10.2779 19.8594 9.21032 19.9811 8.76383 19.7028C8.61506 19.6101 8.50818 19.4162 8.37946 19.1826C8.12182 18.715 7.77665 18.0887 6.83279 17.7972C5.4173 17.3602 5.50598 17.9381 5.85928 18.0799C5.93708 18.1111 6.04017 18.1403 6.15785 18.1736C6.57457 18.2917 7.17422 18.4615 7.48159 18.9561C7.57174 19.1011 7.66449 19.26 7.75926 19.4223C8.07895 19.97 8.42152 20.5568 8.76383 20.7819C9.05963 20.9764 9.76867 21.0543 10.891 21.0155Z" fill="#A6A6A6"/>
</svg>
