<svg width="27" height="26" viewBox="0 0 27 26" fill="none" xmlns="http://www.w3.org/2000/svg">
<path fill-rule="evenodd" clip-rule="evenodd" d="M13.5 -3.05176e-05C6.32032 -3.05176e-05 0.5 5.82029 0.5 13C0.5 20.1797 6.32032 26 13.5 26C20.6797 26 26.5 20.1797 26.5 13C26.5 5.82029 20.6797 -3.05176e-05 13.5 -3.05176e-05ZM11.7046 15.008V18.2014H11.6924C11.6924 18.6424 11.3415 19 10.9086 19H9.69342C8.48203 19 7.5 17.9994 7.5 16.7652V11.1008C7.50467 10.6148 7.7288 10.158 8.10759 9.86263L12.2453 6.44542C12.9734 5.85149 14.0084 5.85149 14.7365 6.44542L18.8924 9.85644C19.2698 10.153 19.4935 10.609 19.5 11.0946V16.7652C19.5 17.9994 18.518 19 17.3066 19H16.0914C15.669 18.9899 15.3318 18.6381 15.3319 18.2076V15.008C15.3319 14.4986 14.9266 14.0856 14.4266 14.0856H12.6038C12.1062 14.089 11.7045 14.501 11.7046 15.008Z" fill="#A6A6A6"/>
</svg>
