<svg width="27" height="26" viewBox="0 0 27 26" fill="none" xmlns="http://www.w3.org/2000/svg">
<path fill-rule="evenodd" clip-rule="evenodd" d="M13.5 -3.05176e-05C6.32032 -3.05176e-05 0.5 5.82029 0.5 13C0.5 20.1797 6.32032 26 13.5 26C20.6797 26 26.5 20.1797 26.5 13C26.5 5.82029 20.6797 -3.05176e-05 13.5 -3.05176e-05ZM15.7846 7C16.9275 7.19495 18.0247 7.53236 19.038 7.99724C19.0533 7.99724 19.0609 8.00474 19.0685 8.01224C20.8743 10.6291 21.7657 13.5758 21.4305 16.9724C21.4305 16.9874 21.4228 17.0024 21.4076 17.0099C20.0361 17.9996 18.718 18.5995 17.4075 18.9969C17.3846 19.0044 17.3618 18.9969 17.3389 18.9894C17.0418 18.577 16.7675 18.1421 16.5237 17.6847C16.516 17.6622 16.5237 17.6247 16.5541 17.6172C16.9884 17.4523 17.4075 17.2648 17.8037 17.0324C17.8418 17.0174 17.8418 16.9724 17.8113 16.9499C17.7694 16.9162 17.7275 16.8843 17.6856 16.8524C17.6437 16.8206 17.6018 16.7887 17.5599 16.7549C17.5446 16.74 17.5218 16.74 17.5065 16.7475C14.916 17.9246 12.0893 17.9246 9.46823 16.7475C9.453 16.74 9.43014 16.74 9.4149 16.7549C9.37299 16.7849 9.33109 16.8168 9.28918 16.8487C9.24728 16.8805 9.20537 16.9124 9.16346 16.9424C9.14061 16.9649 9.14061 17.0099 9.17108 17.0249C9.5749 17.2498 9.98634 17.4448 10.4206 17.6097C10.4511 17.6172 10.4664 17.6472 10.4511 17.6772C10.2149 18.1346 9.94063 18.5695 9.63586 18.9819C9.62824 18.9969 9.60538 19.0044 9.58252 18.9969C8.27963 18.5995 6.9615 17.9996 5.59003 17.0099C5.57479 17.0024 5.56717 16.9874 5.56717 16.9724C5.28526 14.0332 5.85671 11.0639 7.92914 8.01224C7.93676 8.00474 7.94438 7.99724 7.952 7.99724C8.97298 7.53236 10.0625 7.19495 11.2054 7C11.2283 7 11.2511 7.0075 11.2588 7.0225C11.4035 7.26993 11.5635 7.58485 11.6702 7.83978C12.8824 7.65983 14.1152 7.65983 15.3274 7.83978C15.4341 7.59235 15.5941 7.26993 15.7313 7.0225C15.7379 7.01514 15.7462 7.00931 15.7554 7.00543C15.7646 7.00154 15.7746 6.99969 15.7846 7ZM9.40728 13.5908C9.40728 14.468 10.0625 15.1804 10.8473 15.1804C11.6473 15.1804 12.2874 14.468 12.2874 13.5908C12.295 12.721 11.655 12.0012 10.8473 12.0012C10.0473 12.0012 9.40728 12.7135 9.40728 13.5908ZM14.7179 13.5908C14.7179 14.468 15.3732 15.1804 16.1579 15.1804C16.9656 15.1804 17.598 14.468 17.598 13.5908C17.6056 12.721 16.9656 12.0012 16.1579 12.0012C15.3579 12.0012 14.7179 12.7135 14.7179 13.5908Z" fill="#A6A6A6"/>
</svg>
