<svg width="26" height="26" viewBox="0 0 26 26" fill="none" xmlns="http://www.w3.org/2000/svg">
<path d="M11.039 4.73711C10.9969 4.73709 10.955 4.74227 10.9143 4.75254C8.41793 5.38469 6.24747 6.86212 4.80755 8.9094C3.36763 10.9567 2.75651 13.4341 3.08811 15.8798C3.41972 18.3256 4.67142 20.5727 6.60988 22.2023C8.54834 23.832 11.0413 24.7329 13.6239 24.7371H13.6643C15.2444 24.7337 16.8037 24.3931 18.2283 23.7404C19.6529 23.0878 20.9068 22.1394 21.8983 20.9646C21.9605 20.8914 21.9961 20.8008 21.9997 20.7065C22.0033 20.6123 21.9748 20.5194 21.9184 20.442C21.8621 20.3645 21.7809 20.3067 21.6871 20.2771C21.5933 20.2475 21.492 20.2477 21.3984 20.2778C20.4258 20.5861 19.4076 20.7425 18.3828 20.7409C13.2187 20.7409 8.94126 16.7292 8.84775 11.8003C8.79869 9.45982 9.69879 7.19181 11.36 5.47021C11.4177 5.40807 11.4559 5.33161 11.4701 5.24964C11.4844 5.16767 11.4741 5.08353 11.4404 5.00691C11.4067 4.93029 11.3511 4.86432 11.2799 4.81658C11.2086 4.76885 11.1247 4.7413 11.0378 4.73711H11.039Z" fill="#999999"/>
<path d="M16 13.2371C18.4375 13.2371 19.5 12.2116 19.5 9.73711C19.5 12.2116 20.555 13.2371 23 13.2371C20.555 13.2371 19.5 14.2921 19.5 16.7371C19.5 14.2921 18.4375 13.2371 16 13.2371ZM13 8.98711C14.567 8.98711 15.25 8.32811 15.25 6.73711C15.25 8.32811 15.9285 8.98711 17.5 8.98711C15.9285 8.98711 15.25 9.66561 15.25 11.2371C15.25 9.66561 14.567 8.98711 13 8.98711Z" fill="#999999" stroke="#999999" stroke-width="0.5" stroke-linejoin="round"/>
</svg>
