<svg width="26" height="26" viewBox="0 0 26 26" fill="none" xmlns="http://www.w3.org/2000/svg">
<path d="M11.039 4.73714C10.9969 4.73712 10.955 4.74231 10.9143 4.75257C8.41793 5.38472 6.24747 6.86215 4.80755 8.90943C3.36763 10.9567 2.75651 13.4341 3.08811 15.8799C3.41972 18.3256 4.67142 20.5727 6.60988 22.2024C8.54834 23.832 11.0413 24.7329 13.6239 24.7371H13.6643C15.2444 24.7337 16.8037 24.3932 18.2283 23.7405C19.6529 23.0878 20.9068 22.1394 21.8983 20.9647C21.9605 20.8914 21.9961 20.8008 21.9997 20.7066C22.0033 20.6123 21.9748 20.5195 21.9184 20.442C21.8621 20.3646 21.7809 20.3067 21.6871 20.2771C21.5933 20.2475 21.492 20.2478 21.3984 20.2779C20.4258 20.5862 19.4076 20.7425 18.3828 20.7409C13.2187 20.7409 8.94126 16.7292 8.84775 11.8003C8.79869 9.45985 9.69879 7.19184 11.36 5.47024C11.4177 5.4081 11.4559 5.33164 11.4701 5.24967C11.4844 5.1677 11.4741 5.08356 11.4404 5.00694C11.4067 4.93032 11.3511 4.86435 11.2799 4.81661C11.2086 4.76888 11.1247 4.74133 11.0378 4.73714H11.039Z" fill="url(#paint0_linear_17_36)"/>
<path d="M16 13.2371C18.4375 13.2371 19.5 12.2116 19.5 9.73714C19.5 12.2116 20.555 13.2371 23 13.2371C20.555 13.2371 19.5 14.2921 19.5 16.7371C19.5 14.2921 18.4375 13.2371 16 13.2371ZM13 8.98714C14.567 8.98714 15.25 8.32814 15.25 6.73714C15.25 8.32814 15.9285 8.98714 17.5 8.98714C15.9285 8.98714 15.25 9.66564 15.25 11.2371C15.25 9.66564 14.567 8.98714 13 8.98714Z" fill="url(#paint1_linear_17_36)" stroke="url(#paint2_linear_17_36)" stroke-width="0.5" stroke-linejoin="round"/>
<defs>
<linearGradient id="paint0_linear_17_36" x1="12.5" y1="4.73714" x2="12.5" y2="24.7371" gradientUnits="userSpaceOnUse">
<stop stop-color="#00A6FF"/>
<stop offset="0.62" stop-color="#006CFF"/>
</linearGradient>
<linearGradient id="paint1_linear_17_36" x1="18" y1="6.73714" x2="18" y2="16.7371" gradientUnits="userSpaceOnUse">
<stop stop-color="#00A6FF"/>
<stop offset="0.62" stop-color="#006CFF"/>
</linearGradient>
<linearGradient id="paint2_linear_17_36" x1="18" y1="6.73714" x2="18" y2="16.7371" gradientUnits="userSpaceOnUse">
<stop stop-color="#00A6FF"/>
<stop offset="0.62" stop-color="#006CFF"/>
</linearGradient>
</defs>
</svg>
