<svg width="24" height="25" viewBox="0 0 24 25" fill="none" xmlns="http://www.w3.org/2000/svg">
<path d="M11 11.48C11 11.2148 11.1054 10.9604 11.2929 10.7729C11.4804 10.5854 11.7348 10.48 12 10.48C12.2652 10.48 12.5196 10.5854 12.7071 10.7729C12.8946 10.9604 13 11.2148 13 11.48V17.48C13 17.7452 12.8946 17.9996 12.7071 18.1871C12.5196 18.3746 12.2652 18.48 12 18.48C11.7348 18.48 11.4804 18.3746 11.2929 18.1871C11.1054 17.9996 11 17.7452 11 17.48V11.48ZM12 6.55099C11.7348 6.55099 11.4804 6.65635 11.2929 6.84389C11.1054 7.03142 11 7.28578 11 7.55099C11 7.81621 11.1054 8.07057 11.2929 8.2581C11.4804 8.44564 11.7348 8.55099 12 8.55099C12.2652 8.55099 12.5196 8.44564 12.7071 8.2581C12.8946 8.07057 13 7.81621 13 7.55099C13 7.28578 12.8946 7.03142 12.7071 6.84389C12.5196 6.65635 12.2652 6.55099 12 6.55099Z" fill="white"/>
<path fill-rule="evenodd" clip-rule="evenodd" d="M12 2.5C6.477 2.5 2 6.977 2 12.5C2 18.023 6.477 22.5 12 22.5C17.523 22.5 22 18.023 22 12.5C22 6.977 17.523 2.5 12 2.5ZM4 12.5C4 14.6217 4.84285 16.6566 6.34315 18.1569C7.84344 19.6571 9.87827 20.5 12 20.5C14.1217 20.5 16.1566 19.6571 17.6569 18.1569C19.1571 16.6566 20 14.6217 20 12.5C20 10.3783 19.1571 8.34344 17.6569 6.84315C16.1566 5.34285 14.1217 4.5 12 4.5C9.87827 4.5 7.84344 5.34285 6.34315 6.84315C4.84285 8.34344 4 10.3783 4 12.5Z" fill="white"/>
</svg>
